<mxfile host="app.diagrams.net" agent="Mozilla/5.0 (X11; Linux x86_64; rv:137.0) Gecko/20100101 Firefox/137.0" version="26.2.13">
  <diagram name="Страница — 1" id="emy4RsypzGDlvk3DiyiM">
    <mxGraphModel dx="1442" dy="746" grid="1" gridSize="10" guides="1" tooltips="1" connect="1" arrows="1" fold="1" page="1" pageScale="1" pageWidth="827" pageHeight="1169" math="0" shadow="0">
      <root>
        <mxCell id="0" />
        <mxCell id="1" parent="0" />
        <mxCell id="lLBrWNdc0t61kG_hZC1k-34" value="5" style="rounded=0;whiteSpace=wrap;html=1;container=0;" parent="1" vertex="1">
          <mxGeometry x="253" y="100" width="40" height="40" as="geometry" />
        </mxCell>
        <mxCell id="lLBrWNdc0t61kG_hZC1k-45" style="edgeStyle=orthogonalEdgeStyle;rounded=0;orthogonalLoop=1;jettySize=auto;html=1;entryX=0.5;entryY=0;entryDx=0;entryDy=0;exitX=1;exitY=1;exitDx=0;exitDy=0;" parent="1" source="lLBrWNdc0t61kG_hZC1k-35" target="lLBrWNdc0t61kG_hZC1k-58" edge="1">
          <mxGeometry relative="1" as="geometry">
            <mxPoint x="240" y="220" as="targetPoint" />
            <mxPoint x="330" y="170" as="sourcePoint" />
          </mxGeometry>
        </mxCell>
        <mxCell id="lLBrWNdc0t61kG_hZC1k-35" value="1" style="rounded=0;whiteSpace=wrap;html=1;container=0;" parent="1" vertex="1">
          <mxGeometry x="293" y="100" width="40" height="40" as="geometry" />
        </mxCell>
        <mxCell id="lLBrWNdc0t61kG_hZC1k-36" value="4" style="rounded=0;whiteSpace=wrap;html=1;container=0;" parent="1" vertex="1">
          <mxGeometry x="333" y="100" width="40" height="40" as="geometry" />
        </mxCell>
        <mxCell id="lLBrWNdc0t61kG_hZC1k-37" value="2" style="rounded=0;whiteSpace=wrap;html=1;container=0;" parent="1" vertex="1">
          <mxGeometry x="413" y="100" width="40" height="40" as="geometry" />
        </mxCell>
        <mxCell id="FvjTV2vBlUHpwlGPnyEY-13" style="edgeStyle=orthogonalEdgeStyle;rounded=0;orthogonalLoop=1;jettySize=auto;html=1;exitX=1;exitY=1;exitDx=0;exitDy=0;" parent="1" source="lLBrWNdc0t61kG_hZC1k-38" edge="1">
          <mxGeometry relative="1" as="geometry">
            <mxPoint x="413.27272727272725" y="160" as="targetPoint" />
          </mxGeometry>
        </mxCell>
        <mxCell id="lLBrWNdc0t61kG_hZC1k-38" value="6" style="rounded=0;whiteSpace=wrap;html=1;container=0;" parent="1" vertex="1">
          <mxGeometry x="373" y="100" width="40" height="40" as="geometry" />
        </mxCell>
        <mxCell id="lLBrWNdc0t61kG_hZC1k-46" style="edgeStyle=orthogonalEdgeStyle;rounded=0;orthogonalLoop=1;jettySize=auto;html=1;exitX=1;exitY=1;exitDx=0;exitDy=0;entryX=0.5;entryY=0;entryDx=0;entryDy=0;" parent="1" source="lLBrWNdc0t61kG_hZC1k-40" target="lLBrWNdc0t61kG_hZC1k-60" edge="1">
          <mxGeometry relative="1" as="geometry">
            <mxPoint x="560" y="200" as="targetPoint" />
            <mxPoint x="490" y="158.0000000000001" as="sourcePoint" />
            <Array as="points">
              <mxPoint x="490" y="140" />
              <mxPoint x="490" y="180" />
              <mxPoint x="580" y="180" />
            </Array>
          </mxGeometry>
        </mxCell>
        <mxCell id="lLBrWNdc0t61kG_hZC1k-39" value="3" style="rounded=0;whiteSpace=wrap;html=1;container=0;" parent="1" vertex="1">
          <mxGeometry x="493" y="100" width="40" height="40" as="geometry" />
        </mxCell>
        <mxCell id="lLBrWNdc0t61kG_hZC1k-40" value="7" style="rounded=0;whiteSpace=wrap;html=1;container=0;" parent="1" vertex="1">
          <mxGeometry x="453" y="100" width="40" height="40" as="geometry" />
        </mxCell>
        <mxCell id="lLBrWNdc0t61kG_hZC1k-41" value="8" style="rounded=0;whiteSpace=wrap;html=1;container=0;" parent="1" vertex="1">
          <mxGeometry x="533" y="100" width="40" height="40" as="geometry" />
        </mxCell>
        <mxCell id="lLBrWNdc0t61kG_hZC1k-43" value="input_list" style="rounded=0;whiteSpace=wrap;html=1;container=0;" parent="1" vertex="1">
          <mxGeometry x="253" y="80" width="320" height="20" as="geometry" />
        </mxCell>
        <mxCell id="lLBrWNdc0t61kG_hZC1k-49" value="5" style="rounded=0;whiteSpace=wrap;html=1;container=0;" parent="1" vertex="1">
          <mxGeometry x="160" y="220" width="40" height="40" as="geometry" />
        </mxCell>
        <mxCell id="lLBrWNdc0t61kG_hZC1k-50" value="1" style="rounded=0;whiteSpace=wrap;html=1;container=0;" parent="1" vertex="1">
          <mxGeometry x="200" y="220" width="40" height="40" as="geometry" />
        </mxCell>
        <mxCell id="lLBrWNdc0t61kG_hZC1k-51" value="4" style="rounded=0;whiteSpace=wrap;html=1;container=0;" parent="1" vertex="1">
          <mxGeometry x="240" y="220" width="40" height="40" as="geometry" />
        </mxCell>
        <mxCell id="lLBrWNdc0t61kG_hZC1k-52" value="6" style="rounded=0;whiteSpace=wrap;html=1;container=0;" parent="1" vertex="1">
          <mxGeometry x="280" y="220" width="40" height="40" as="geometry" />
        </mxCell>
        <mxCell id="lLBrWNdc0t61kG_hZC1k-53" value="2" style="rounded=0;whiteSpace=wrap;html=1;container=0;" parent="1" vertex="1">
          <mxGeometry x="500" y="220" width="40" height="40" as="geometry" />
        </mxCell>
        <mxCell id="lLBrWNdc0t61kG_hZC1k-54" value="3" style="rounded=0;whiteSpace=wrap;html=1;container=0;" parent="1" vertex="1">
          <mxGeometry x="580" y="220" width="40" height="40" as="geometry" />
        </mxCell>
        <mxCell id="lLBrWNdc0t61kG_hZC1k-55" value="7" style="rounded=0;whiteSpace=wrap;html=1;container=0;" parent="1" vertex="1">
          <mxGeometry x="540" y="220" width="40" height="40" as="geometry" />
        </mxCell>
        <mxCell id="lLBrWNdc0t61kG_hZC1k-56" value="8" style="rounded=0;whiteSpace=wrap;html=1;container=0;" parent="1" vertex="1">
          <mxGeometry x="620" y="220" width="40" height="40" as="geometry" />
        </mxCell>
        <mxCell id="lLBrWNdc0t61kG_hZC1k-58" value="half_1" style="rounded=0;whiteSpace=wrap;html=1;" parent="1" vertex="1">
          <mxGeometry x="160" y="200" width="160" height="20" as="geometry" />
        </mxCell>
        <mxCell id="lLBrWNdc0t61kG_hZC1k-60" value="half_2" style="rounded=0;whiteSpace=wrap;html=1;" parent="1" vertex="1">
          <mxGeometry x="500" y="200" width="160" height="20" as="geometry" />
        </mxCell>
        <mxCell id="lLBrWNdc0t61kG_hZC1k-100" style="edgeStyle=orthogonalEdgeStyle;rounded=0;orthogonalLoop=1;jettySize=auto;html=1;exitX=0.5;exitY=1;exitDx=0;exitDy=0;entryX=0.5;entryY=0;entryDx=0;entryDy=0;" parent="1" source="lLBrWNdc0t61kG_hZC1k-65" target="lLBrWNdc0t61kG_hZC1k-86" edge="1">
          <mxGeometry relative="1" as="geometry" />
        </mxCell>
        <mxCell id="lLBrWNdc0t61kG_hZC1k-65" value="5" style="rounded=0;whiteSpace=wrap;html=1;container=0;" parent="1" vertex="1">
          <mxGeometry x="140" y="320" width="40" height="40" as="geometry" />
        </mxCell>
        <mxCell id="lLBrWNdc0t61kG_hZC1k-101" style="edgeStyle=orthogonalEdgeStyle;rounded=0;orthogonalLoop=1;jettySize=auto;html=1;exitX=0.5;exitY=1;exitDx=0;exitDy=0;entryX=0.5;entryY=0;entryDx=0;entryDy=0;" parent="1" source="lLBrWNdc0t61kG_hZC1k-66" target="lLBrWNdc0t61kG_hZC1k-87" edge="1">
          <mxGeometry relative="1" as="geometry" />
        </mxCell>
        <mxCell id="lLBrWNdc0t61kG_hZC1k-66" value="1" style="rounded=0;whiteSpace=wrap;html=1;container=0;" parent="1" vertex="1">
          <mxGeometry x="180" y="320" width="40" height="40" as="geometry" />
        </mxCell>
        <mxCell id="lLBrWNdc0t61kG_hZC1k-102" style="edgeStyle=orthogonalEdgeStyle;rounded=0;orthogonalLoop=1;jettySize=auto;html=1;exitX=0.5;exitY=1;exitDx=0;exitDy=0;entryX=0.5;entryY=0;entryDx=0;entryDy=0;" parent="1" source="lLBrWNdc0t61kG_hZC1k-67" edge="1">
          <mxGeometry relative="1" as="geometry">
            <mxPoint x="283" y="400" as="targetPoint" />
          </mxGeometry>
        </mxCell>
        <mxCell id="lLBrWNdc0t61kG_hZC1k-67" value="4" style="rounded=0;whiteSpace=wrap;html=1;container=0;" parent="1" vertex="1">
          <mxGeometry x="283" y="320" width="40" height="40" as="geometry" />
        </mxCell>
        <mxCell id="lLBrWNdc0t61kG_hZC1k-103" style="edgeStyle=orthogonalEdgeStyle;rounded=0;orthogonalLoop=1;jettySize=auto;html=1;exitX=0.5;exitY=1;exitDx=0;exitDy=0;entryX=0.5;entryY=0;entryDx=0;entryDy=0;" parent="1" source="lLBrWNdc0t61kG_hZC1k-68" target="lLBrWNdc0t61kG_hZC1k-91" edge="1">
          <mxGeometry relative="1" as="geometry" />
        </mxCell>
        <mxCell id="lLBrWNdc0t61kG_hZC1k-68" value="6" style="rounded=0;whiteSpace=wrap;html=1;container=0;" parent="1" vertex="1">
          <mxGeometry x="323" y="320" width="40" height="40" as="geometry" />
        </mxCell>
        <mxCell id="lLBrWNdc0t61kG_hZC1k-104" style="edgeStyle=orthogonalEdgeStyle;rounded=0;orthogonalLoop=1;jettySize=auto;html=1;exitX=0.5;exitY=1;exitDx=0;exitDy=0;entryX=0.5;entryY=0;entryDx=0;entryDy=0;" parent="1" source="lLBrWNdc0t61kG_hZC1k-69" target="lLBrWNdc0t61kG_hZC1k-94" edge="1">
          <mxGeometry relative="1" as="geometry" />
        </mxCell>
        <mxCell id="lLBrWNdc0t61kG_hZC1k-69" value="2" style="rounded=0;whiteSpace=wrap;html=1;container=0;" parent="1" vertex="1">
          <mxGeometry x="460" y="320" width="40" height="40" as="geometry" />
        </mxCell>
        <mxCell id="lLBrWNdc0t61kG_hZC1k-105" style="edgeStyle=orthogonalEdgeStyle;rounded=0;orthogonalLoop=1;jettySize=auto;html=1;exitX=0.5;exitY=1;exitDx=0;exitDy=0;entryX=0.5;entryY=0;entryDx=0;entryDy=0;" parent="1" source="lLBrWNdc0t61kG_hZC1k-70" target="lLBrWNdc0t61kG_hZC1k-95" edge="1">
          <mxGeometry relative="1" as="geometry" />
        </mxCell>
        <mxCell id="lLBrWNdc0t61kG_hZC1k-70" value="7" style="rounded=0;whiteSpace=wrap;html=1;container=0;" parent="1" vertex="1">
          <mxGeometry x="500" y="320" width="40" height="40" as="geometry" />
        </mxCell>
        <mxCell id="lLBrWNdc0t61kG_hZC1k-106" style="edgeStyle=orthogonalEdgeStyle;rounded=0;orthogonalLoop=1;jettySize=auto;html=1;exitX=0.5;exitY=1;exitDx=0;exitDy=0;entryX=0.5;entryY=0;entryDx=0;entryDy=0;" parent="1" source="lLBrWNdc0t61kG_hZC1k-71" target="lLBrWNdc0t61kG_hZC1k-96" edge="1">
          <mxGeometry relative="1" as="geometry" />
        </mxCell>
        <mxCell id="lLBrWNdc0t61kG_hZC1k-71" value="3" style="rounded=0;whiteSpace=wrap;html=1;container=0;" parent="1" vertex="1">
          <mxGeometry x="620" y="320" width="40" height="40" as="geometry" />
        </mxCell>
        <mxCell id="lLBrWNdc0t61kG_hZC1k-107" style="edgeStyle=orthogonalEdgeStyle;rounded=0;orthogonalLoop=1;jettySize=auto;html=1;exitX=0.5;exitY=1;exitDx=0;exitDy=0;entryX=0.5;entryY=0;entryDx=0;entryDy=0;" parent="1" source="lLBrWNdc0t61kG_hZC1k-72" target="lLBrWNdc0t61kG_hZC1k-97" edge="1">
          <mxGeometry relative="1" as="geometry" />
        </mxCell>
        <mxCell id="lLBrWNdc0t61kG_hZC1k-72" value="8" style="rounded=0;whiteSpace=wrap;html=1;container=0;" parent="1" vertex="1">
          <mxGeometry x="660" y="320" width="40" height="40" as="geometry" />
        </mxCell>
        <mxCell id="lLBrWNdc0t61kG_hZC1k-98" style="edgeStyle=orthogonalEdgeStyle;rounded=0;orthogonalLoop=1;jettySize=auto;html=1;exitX=0.1;exitY=0.5;exitDx=0;exitDy=0;exitPerimeter=0;entryX=0;entryY=0;entryDx=0;entryDy=0;" parent="1" source="lLBrWNdc0t61kG_hZC1k-73" target="lLBrWNdc0t61kG_hZC1k-66" edge="1">
          <mxGeometry relative="1" as="geometry" />
        </mxCell>
        <mxCell id="lLBrWNdc0t61kG_hZC1k-73" value="" style="shape=curlyBracket;whiteSpace=wrap;html=1;rounded=1;flipH=1;labelPosition=right;verticalLabelPosition=middle;align=left;verticalAlign=middle;rotation=90;" parent="1" vertex="1">
          <mxGeometry x="190" y="230" width="20" height="80" as="geometry" />
        </mxCell>
        <mxCell id="lLBrWNdc0t61kG_hZC1k-92" style="edgeStyle=orthogonalEdgeStyle;rounded=0;orthogonalLoop=1;jettySize=auto;html=1;exitX=0.1;exitY=0.5;exitDx=0;exitDy=0;exitPerimeter=0;entryX=0;entryY=0;entryDx=0;entryDy=0;" parent="1" source="lLBrWNdc0t61kG_hZC1k-74" target="lLBrWNdc0t61kG_hZC1k-68" edge="1">
          <mxGeometry relative="1" as="geometry">
            <Array as="points">
              <mxPoint x="280" y="290" />
              <mxPoint x="320" y="290" />
              <mxPoint x="320" y="320" />
            </Array>
          </mxGeometry>
        </mxCell>
        <mxCell id="lLBrWNdc0t61kG_hZC1k-74" value="" style="shape=curlyBracket;whiteSpace=wrap;html=1;rounded=1;flipH=1;labelPosition=right;verticalLabelPosition=middle;align=left;verticalAlign=middle;rotation=90;" parent="1" vertex="1">
          <mxGeometry x="270" y="230" width="20" height="80" as="geometry" />
        </mxCell>
        <mxCell id="lLBrWNdc0t61kG_hZC1k-84" style="edgeStyle=orthogonalEdgeStyle;rounded=0;orthogonalLoop=1;jettySize=auto;html=1;exitX=0.1;exitY=0.5;exitDx=0;exitDy=0;exitPerimeter=0;entryX=0;entryY=0;entryDx=0;entryDy=0;" parent="1" source="lLBrWNdc0t61kG_hZC1k-75" target="lLBrWNdc0t61kG_hZC1k-70" edge="1">
          <mxGeometry relative="1" as="geometry" />
        </mxCell>
        <mxCell id="lLBrWNdc0t61kG_hZC1k-75" value="" style="shape=curlyBracket;whiteSpace=wrap;html=1;rounded=1;flipH=1;labelPosition=right;verticalLabelPosition=middle;align=left;verticalAlign=middle;rotation=90;" parent="1" vertex="1">
          <mxGeometry x="530" y="230" width="20" height="80" as="geometry" />
        </mxCell>
        <mxCell id="lLBrWNdc0t61kG_hZC1k-85" style="edgeStyle=orthogonalEdgeStyle;rounded=0;orthogonalLoop=1;jettySize=auto;html=1;exitX=0.1;exitY=0.5;exitDx=0;exitDy=0;exitPerimeter=0;entryX=0;entryY=0;entryDx=0;entryDy=0;" parent="1" source="lLBrWNdc0t61kG_hZC1k-76" target="lLBrWNdc0t61kG_hZC1k-72" edge="1">
          <mxGeometry relative="1" as="geometry" />
        </mxCell>
        <mxCell id="lLBrWNdc0t61kG_hZC1k-76" value="" style="shape=curlyBracket;whiteSpace=wrap;html=1;rounded=1;flipH=1;labelPosition=right;verticalLabelPosition=middle;align=left;verticalAlign=middle;rotation=90;" parent="1" vertex="1">
          <mxGeometry x="610" y="230" width="20" height="80" as="geometry" />
        </mxCell>
        <mxCell id="lLBrWNdc0t61kG_hZC1k-110" style="edgeStyle=orthogonalEdgeStyle;rounded=0;orthogonalLoop=1;jettySize=auto;html=1;exitX=0.5;exitY=1;exitDx=0;exitDy=0;entryX=0.5;entryY=0;entryDx=0;entryDy=0;" parent="1" source="lLBrWNdc0t61kG_hZC1k-86" target="lLBrWNdc0t61kG_hZC1k-109" edge="1">
          <mxGeometry relative="1" as="geometry" />
        </mxCell>
        <mxCell id="lLBrWNdc0t61kG_hZC1k-86" value="5" style="rounded=0;whiteSpace=wrap;html=1;container=0;" parent="1" vertex="1">
          <mxGeometry x="120" y="400" width="40" height="40" as="geometry" />
        </mxCell>
        <mxCell id="lLBrWNdc0t61kG_hZC1k-111" style="edgeStyle=orthogonalEdgeStyle;rounded=0;orthogonalLoop=1;jettySize=auto;html=1;exitX=0.5;exitY=1;exitDx=0;exitDy=0;entryX=0.5;entryY=0;entryDx=0;entryDy=0;" parent="1" source="lLBrWNdc0t61kG_hZC1k-87" target="lLBrWNdc0t61kG_hZC1k-108" edge="1">
          <mxGeometry relative="1" as="geometry" />
        </mxCell>
        <mxCell id="lLBrWNdc0t61kG_hZC1k-87" value="1" style="rounded=0;whiteSpace=wrap;html=1;container=0;" parent="1" vertex="1">
          <mxGeometry x="200" y="400" width="40" height="40" as="geometry" />
        </mxCell>
        <mxCell id="lLBrWNdc0t61kG_hZC1k-114" style="edgeStyle=orthogonalEdgeStyle;rounded=0;orthogonalLoop=1;jettySize=auto;html=1;exitX=0.5;exitY=1;exitDx=0;exitDy=0;entryX=0.5;entryY=0;entryDx=0;entryDy=0;" parent="1" target="lLBrWNdc0t61kG_hZC1k-113" edge="1">
          <mxGeometry relative="1" as="geometry">
            <mxPoint x="283" y="440" as="sourcePoint" />
          </mxGeometry>
        </mxCell>
        <mxCell id="lLBrWNdc0t61kG_hZC1k-89" value="4" style="rounded=0;whiteSpace=wrap;html=1;container=0;" parent="1" vertex="1">
          <mxGeometry x="270" y="400" width="40" height="40" as="geometry" />
        </mxCell>
        <mxCell id="lLBrWNdc0t61kG_hZC1k-115" style="edgeStyle=orthogonalEdgeStyle;rounded=0;orthogonalLoop=1;jettySize=auto;html=1;exitX=0.5;exitY=1;exitDx=0;exitDy=0;entryX=0.5;entryY=0;entryDx=0;entryDy=0;" parent="1" source="lLBrWNdc0t61kG_hZC1k-91" target="lLBrWNdc0t61kG_hZC1k-112" edge="1">
          <mxGeometry relative="1" as="geometry" />
        </mxCell>
        <mxCell id="lLBrWNdc0t61kG_hZC1k-91" value="6" style="rounded=0;whiteSpace=wrap;html=1;container=0;" parent="1" vertex="1">
          <mxGeometry x="343" y="400" width="40" height="40" as="geometry" />
        </mxCell>
        <mxCell id="lLBrWNdc0t61kG_hZC1k-123" style="edgeStyle=orthogonalEdgeStyle;rounded=0;orthogonalLoop=1;jettySize=auto;html=1;exitX=0.5;exitY=1;exitDx=0;exitDy=0;entryX=0.5;entryY=0;entryDx=0;entryDy=0;" parent="1" source="lLBrWNdc0t61kG_hZC1k-94" target="lLBrWNdc0t61kG_hZC1k-116" edge="1">
          <mxGeometry relative="1" as="geometry" />
        </mxCell>
        <mxCell id="lLBrWNdc0t61kG_hZC1k-94" value="2" style="rounded=0;whiteSpace=wrap;html=1;container=0;" parent="1" vertex="1">
          <mxGeometry x="440" y="400" width="40" height="40" as="geometry" />
        </mxCell>
        <mxCell id="lLBrWNdc0t61kG_hZC1k-122" style="edgeStyle=orthogonalEdgeStyle;rounded=0;orthogonalLoop=1;jettySize=auto;html=1;exitX=0.5;exitY=1;exitDx=0;exitDy=0;entryX=0.5;entryY=0;entryDx=0;entryDy=0;" parent="1" source="lLBrWNdc0t61kG_hZC1k-95" target="lLBrWNdc0t61kG_hZC1k-117" edge="1">
          <mxGeometry relative="1" as="geometry" />
        </mxCell>
        <mxCell id="lLBrWNdc0t61kG_hZC1k-95" value="7" style="rounded=0;whiteSpace=wrap;html=1;container=0;" parent="1" vertex="1">
          <mxGeometry x="520" y="400" width="40" height="40" as="geometry" />
        </mxCell>
        <mxCell id="lLBrWNdc0t61kG_hZC1k-120" style="edgeStyle=orthogonalEdgeStyle;rounded=0;orthogonalLoop=1;jettySize=auto;html=1;exitX=0.5;exitY=1;exitDx=0;exitDy=0;entryX=0.5;entryY=0;entryDx=0;entryDy=0;" parent="1" source="lLBrWNdc0t61kG_hZC1k-96" target="lLBrWNdc0t61kG_hZC1k-118" edge="1">
          <mxGeometry relative="1" as="geometry" />
        </mxCell>
        <mxCell id="lLBrWNdc0t61kG_hZC1k-96" value="3" style="rounded=0;whiteSpace=wrap;html=1;container=0;" parent="1" vertex="1">
          <mxGeometry x="600" y="400" width="40" height="40" as="geometry" />
        </mxCell>
        <mxCell id="lLBrWNdc0t61kG_hZC1k-121" style="edgeStyle=orthogonalEdgeStyle;rounded=0;orthogonalLoop=1;jettySize=auto;html=1;exitX=0.5;exitY=1;exitDx=0;exitDy=0;entryX=0.5;entryY=0;entryDx=0;entryDy=0;" parent="1" source="lLBrWNdc0t61kG_hZC1k-97" target="lLBrWNdc0t61kG_hZC1k-119" edge="1">
          <mxGeometry relative="1" as="geometry" />
        </mxCell>
        <mxCell id="lLBrWNdc0t61kG_hZC1k-97" value="8" style="rounded=0;whiteSpace=wrap;html=1;container=0;" parent="1" vertex="1">
          <mxGeometry x="680" y="400" width="40" height="40" as="geometry" />
        </mxCell>
        <mxCell id="lLBrWNdc0t61kG_hZC1k-108" value="5" style="rounded=0;whiteSpace=wrap;html=1;container=0;" parent="1" vertex="1">
          <mxGeometry x="180" y="480" width="40" height="40" as="geometry" />
        </mxCell>
        <mxCell id="lLBrWNdc0t61kG_hZC1k-129" style="edgeStyle=orthogonalEdgeStyle;rounded=0;orthogonalLoop=1;jettySize=auto;html=1;exitX=1;exitY=1;exitDx=0;exitDy=0;entryX=0;entryY=0;entryDx=0;entryDy=0;" parent="1" source="lLBrWNdc0t61kG_hZC1k-109" target="lLBrWNdc0t61kG_hZC1k-125" edge="1">
          <mxGeometry relative="1" as="geometry" />
        </mxCell>
        <mxCell id="lLBrWNdc0t61kG_hZC1k-109" value="1" style="rounded=0;whiteSpace=wrap;html=1;container=0;" parent="1" vertex="1">
          <mxGeometry x="140" y="480" width="40" height="40" as="geometry" />
        </mxCell>
        <mxCell id="lLBrWNdc0t61kG_hZC1k-130" style="edgeStyle=orthogonalEdgeStyle;rounded=0;orthogonalLoop=1;jettySize=auto;html=1;exitX=0;exitY=1;exitDx=0;exitDy=0;entryX=0;entryY=0;entryDx=0;entryDy=0;" parent="1" source="lLBrWNdc0t61kG_hZC1k-112" target="lLBrWNdc0t61kG_hZC1k-128" edge="1">
          <mxGeometry relative="1" as="geometry" />
        </mxCell>
        <mxCell id="lLBrWNdc0t61kG_hZC1k-112" value="6" style="rounded=0;whiteSpace=wrap;html=1;container=0;" parent="1" vertex="1">
          <mxGeometry x="323" y="480" width="40" height="40" as="geometry" />
        </mxCell>
        <mxCell id="lLBrWNdc0t61kG_hZC1k-113" value="4" style="rounded=0;whiteSpace=wrap;html=1;container=0;" parent="1" vertex="1">
          <mxGeometry x="283" y="480" width="40" height="40" as="geometry" />
        </mxCell>
        <mxCell id="lLBrWNdc0t61kG_hZC1k-138" style="edgeStyle=orthogonalEdgeStyle;rounded=0;orthogonalLoop=1;jettySize=auto;html=1;exitX=1;exitY=1;exitDx=0;exitDy=0;entryX=0;entryY=0;entryDx=0;entryDy=0;" parent="1" source="lLBrWNdc0t61kG_hZC1k-116" target="lLBrWNdc0t61kG_hZC1k-134" edge="1">
          <mxGeometry relative="1" as="geometry" />
        </mxCell>
        <mxCell id="lLBrWNdc0t61kG_hZC1k-116" value="2" style="rounded=0;whiteSpace=wrap;html=1;container=0;" parent="1" vertex="1">
          <mxGeometry x="460" y="480" width="40" height="40" as="geometry" />
        </mxCell>
        <mxCell id="lLBrWNdc0t61kG_hZC1k-117" value="7" style="rounded=0;whiteSpace=wrap;html=1;container=0;" parent="1" vertex="1">
          <mxGeometry x="500" y="480" width="40" height="40" as="geometry" />
        </mxCell>
        <mxCell id="lLBrWNdc0t61kG_hZC1k-118" value="3" style="rounded=0;whiteSpace=wrap;html=1;container=0;" parent="1" vertex="1">
          <mxGeometry x="620" y="480" width="40" height="40" as="geometry" />
        </mxCell>
        <mxCell id="lLBrWNdc0t61kG_hZC1k-139" style="edgeStyle=orthogonalEdgeStyle;rounded=0;orthogonalLoop=1;jettySize=auto;html=1;exitX=0;exitY=1;exitDx=0;exitDy=0;entryX=0;entryY=0;entryDx=0;entryDy=0;" parent="1" source="lLBrWNdc0t61kG_hZC1k-119" target="lLBrWNdc0t61kG_hZC1k-137" edge="1">
          <mxGeometry relative="1" as="geometry" />
        </mxCell>
        <mxCell id="lLBrWNdc0t61kG_hZC1k-119" value="8" style="rounded=0;whiteSpace=wrap;html=1;container=0;" parent="1" vertex="1">
          <mxGeometry x="660" y="480" width="40" height="40" as="geometry" />
        </mxCell>
        <mxCell id="lLBrWNdc0t61kG_hZC1k-124" value="1" style="rounded=0;whiteSpace=wrap;html=1;container=0;" parent="1" vertex="1">
          <mxGeometry x="180" y="560" width="40" height="40" as="geometry" />
        </mxCell>
        <mxCell id="lLBrWNdc0t61kG_hZC1k-148" style="edgeStyle=orthogonalEdgeStyle;rounded=0;orthogonalLoop=1;jettySize=auto;html=1;exitX=1;exitY=1;exitDx=0;exitDy=0;entryX=0.25;entryY=0;entryDx=0;entryDy=0;" parent="1" source="lLBrWNdc0t61kG_hZC1k-125" target="lLBrWNdc0t61kG_hZC1k-150" edge="1">
          <mxGeometry relative="1" as="geometry" />
        </mxCell>
        <mxCell id="lLBrWNdc0t61kG_hZC1k-125" value="4" style="rounded=0;whiteSpace=wrap;html=1;container=0;" parent="1" vertex="1">
          <mxGeometry x="220" y="560" width="40" height="40" as="geometry" />
        </mxCell>
        <mxCell id="lLBrWNdc0t61kG_hZC1k-126" value="5" style="rounded=0;whiteSpace=wrap;html=1;container=0;" parent="1" vertex="1">
          <mxGeometry x="260" y="560" width="40" height="40" as="geometry" />
        </mxCell>
        <mxCell id="lLBrWNdc0t61kG_hZC1k-128" value="6" style="rounded=0;whiteSpace=wrap;html=1;container=0;" parent="1" vertex="1">
          <mxGeometry x="300" y="560" width="40" height="40" as="geometry" />
        </mxCell>
        <mxCell id="lLBrWNdc0t61kG_hZC1k-133" value="2" style="rounded=0;whiteSpace=wrap;html=1;container=0;" parent="1" vertex="1">
          <mxGeometry x="500" y="560" width="40" height="40" as="geometry" />
        </mxCell>
        <mxCell id="lLBrWNdc0t61kG_hZC1k-134" value="3" style="rounded=0;whiteSpace=wrap;html=1;container=0;" parent="1" vertex="1">
          <mxGeometry x="540" y="560" width="40" height="40" as="geometry" />
        </mxCell>
        <mxCell id="lLBrWNdc0t61kG_hZC1k-149" style="edgeStyle=orthogonalEdgeStyle;rounded=0;orthogonalLoop=1;jettySize=auto;html=1;exitX=0;exitY=1;exitDx=0;exitDy=0;entryX=0.75;entryY=0;entryDx=0;entryDy=0;" parent="1" source="lLBrWNdc0t61kG_hZC1k-135" target="lLBrWNdc0t61kG_hZC1k-150" edge="1">
          <mxGeometry relative="1" as="geometry" />
        </mxCell>
        <mxCell id="lLBrWNdc0t61kG_hZC1k-135" value="7" style="rounded=0;whiteSpace=wrap;html=1;container=0;" parent="1" vertex="1">
          <mxGeometry x="580" y="560" width="40" height="40" as="geometry" />
        </mxCell>
        <mxCell id="lLBrWNdc0t61kG_hZC1k-137" value="8" style="rounded=0;whiteSpace=wrap;html=1;container=0;" parent="1" vertex="1">
          <mxGeometry x="620" y="560" width="40" height="40" as="geometry" />
        </mxCell>
        <mxCell id="lLBrWNdc0t61kG_hZC1k-140" value="1" style="rounded=0;whiteSpace=wrap;html=1;container=0;" parent="1" vertex="1">
          <mxGeometry x="240" y="680" width="40" height="40" as="geometry" />
        </mxCell>
        <mxCell id="lLBrWNdc0t61kG_hZC1k-141" value="2" style="rounded=0;whiteSpace=wrap;html=1;container=0;" parent="1" vertex="1">
          <mxGeometry x="280" y="680" width="40" height="40" as="geometry" />
        </mxCell>
        <mxCell id="lLBrWNdc0t61kG_hZC1k-142" value="3" style="rounded=0;whiteSpace=wrap;html=1;container=0;" parent="1" vertex="1">
          <mxGeometry x="320" y="680" width="40" height="40" as="geometry" />
        </mxCell>
        <mxCell id="lLBrWNdc0t61kG_hZC1k-143" value="4" style="rounded=0;whiteSpace=wrap;html=1;container=0;" parent="1" vertex="1">
          <mxGeometry x="360" y="680" width="40" height="40" as="geometry" />
        </mxCell>
        <mxCell id="lLBrWNdc0t61kG_hZC1k-144" value="5" style="rounded=0;whiteSpace=wrap;html=1;container=0;" parent="1" vertex="1">
          <mxGeometry x="400" y="680" width="40" height="40" as="geometry" />
        </mxCell>
        <mxCell id="lLBrWNdc0t61kG_hZC1k-145" value="6" style="rounded=0;whiteSpace=wrap;html=1;container=0;" parent="1" vertex="1">
          <mxGeometry x="440" y="680" width="40" height="40" as="geometry" />
        </mxCell>
        <mxCell id="lLBrWNdc0t61kG_hZC1k-146" value="7" style="rounded=0;whiteSpace=wrap;html=1;container=0;" parent="1" vertex="1">
          <mxGeometry x="480" y="680" width="40" height="40" as="geometry" />
        </mxCell>
        <mxCell id="lLBrWNdc0t61kG_hZC1k-147" value="8" style="rounded=0;whiteSpace=wrap;html=1;container=0;" parent="1" vertex="1">
          <mxGeometry x="520" y="680" width="40" height="40" as="geometry" />
        </mxCell>
        <mxCell id="lLBrWNdc0t61kG_hZC1k-150" value="output_list" style="rounded=0;whiteSpace=wrap;html=1;container=0;" parent="1" vertex="1">
          <mxGeometry x="240" y="660" width="320" height="20" as="geometry" />
        </mxCell>
        <mxCell id="FvjTV2vBlUHpwlGPnyEY-23" value="&amp;nbsp;" style="text;whiteSpace=wrap;html=1;" parent="1" vertex="1">
          <mxGeometry x="800" y="1430" width="40" height="40" as="geometry" />
        </mxCell>
      </root>
    </mxGraphModel>
  </diagram>
</mxfile>
